<svg viewBox="0 0 1024 1024" version="1.1" xmlns="http://www.w3.org/2000/svg"><path d="M180.1728 395.2128l410.112 410.112a31.9488 31.9488 0 0 0 45.2096 0L793.6 647.3216a32 32 0 0 0 0-45.2608l-53.6064-53.6064a222.3104 222.3104 0 0 1-305.4592-305.4592l-51.2-51.2a31.9488 31.9488 0 0 0-45.2096 0l-157.952 158.208a31.9488 31.9488 0 0 0 0 45.2096z" fill="#FFC0A1"/><path d="M827.3408 855.6032A54.4768 54.4768 0 0 1 788.48 839.68l-74.8032-74.752a15.36 15.36 0 0 1 0-21.7088l55.9616-55.9616a15.36 15.36 0 0 1 21.76 0l74.752 74.752a54.9376 54.9376 0 0 1-38.8608 93.7472z m-80.9984-101.6832l63.8976 63.8976a24.2176 24.2176 0 0 0 34.2528-34.2528l-63.9488-63.8976zM269.2608 313.9072a15.36 15.36 0 0 1-10.8544-4.5056l-74.8032-74.752A54.9376 54.9376 0 0 1 261.12 156.9792l74.752 74.752a15.36 15.36 0 0 1 0 21.7088L280.1152 309.4016a15.36 15.36 0 0 1-10.8544 4.5056z m-46.7968-142.2848a24.2688 24.2688 0 0 0-17.152 41.3184l63.9488 63.8976 34.2528-34.2528L239.5648 178.688a24.1152 24.1152 0 0 0-17.1008-7.0656zM368.64 883.0976a207.4112 207.4112 0 0 1-29.5424-2.048c-48.1792-6.8608-87.04-30.72-111.9744-69.2736-20.48-31.5904-15.872-65.8432-12.032-93.3888 2.304-16.5888 4.4544-32.256-1.28-35.84-32.768-21.0944-53.8624-41.4208-62.6688-60.3648-24.7808-53.3504 2.4064-119.0912 67.6864-163.84a15.36 15.36 0 0 1 17.3056 25.6c-43.5712 29.7472-78.1824 80.0256-57.1392 125.2864 6.144 13.2096 24.4224 30.0544 51.2 47.5136 22.2208 14.2848 18.5856 40.6016 15.0528 65.9968s-7.0144 50.3808 7.3216 72.3456c20.48 31.2832 50.8928 50.0224 90.624 55.6544 62.4128 8.8576 142.2848-17.8176 198.7584-66.56a15.36 15.36 0 1 1 20.0192 23.296C506.88 855.04 433.664 883.0976 368.64 883.0976z" fill="#8E5178"/><path d="M658.4832 822.1184a47.2064 47.2064 0 0 1-33.4848-13.824L215.04 398.1824a47.36 47.36 0 0 1 0-66.9696l157.9008-158.0544a47.2576 47.2576 0 0 1 66.9184 0l51.2 51.2a15.36 15.36 0 0 1 2.2528 18.8416 206.8992 206.8992 0 0 0 284.2112 284.16 15.36 15.36 0 0 1 18.8416 2.2528L849.92 583.2704a47.36 47.36 0 0 1 0 66.9696l-158.0032 158.0544a47.36 47.36 0 0 1-33.4336 13.824zM406.4256 190.0032a16.5888 16.5888 0 0 0-11.776 5.12L236.5952 352.9216a16.6912 16.6912 0 0 0 0 23.552l410.112 410.112a16.6912 16.6912 0 0 0 23.5008 0l158.0544-158.0544a16.64 16.64 0 0 0 4.864-11.776 16.4352 16.4352 0 0 0-4.864-11.7248l-45.312-45.312A237.6704 237.6704 0 0 1 460.8 237.6704l-42.752-42.8032a16.5376 16.5376 0 0 0-11.6224-4.864z" fill="#8E5178"/><path d="M669.952 588.4416a237.824 237.824 0 0 1-202.9568-361.3184 15.36 15.36 0 0 1 23.9616-2.8672l305.408 305.408a15.36 15.36 0 0 1-2.8672 24.0128 237.312 237.312 0 0 1-123.5456 34.7648zM483.7376 260.4544a206.9504 206.9504 0 0 0 276.48 276.48z" fill="#8E5178"/></svg>
