<svg xmlns="http://www.w3.org/2000/svg" width="1200" height="630" viewBox="0 0 1200 630">
  <defs>
    <linearGradient id="bg" x1="0" y1="0" x2="0" y2="1">
      <stop offset="0%" stop-color="#0f172a"/>
      <stop offset="55%" stop-color="#1e293b"/>
      <stop offset="100%" stop-color="#2d1b4e"/>
    </linearGradient>
  </defs>
  <rect width="1200" height="630" fill="url(#bg)"/>

  <g font-family="monospace" font-weight="bold" fill="#94a3b8">

    <!-- ═══════════════════════════════════════════════════════ -->
    <!-- TOP BAND  y 200-320  scale 0.5-0.65  opacity 0.05-0.07 -->
    <!-- ═══════════════════════════════════════════════════════ -->

    <!-- 28. SQLite — feather quill -->
    <g transform="translate(30, 235) scale(0.6) rotate(-4)" opacity="0.06">
      <path d="M18 2Q8 8 6 22" fill="none" stroke="#94a3b8" stroke-width="2" stroke-linecap="round"/>
      <path d="M18 2Q14 12 4 16" fill="none" stroke="#94a3b8" stroke-width="1.5" stroke-linecap="round"/>
      <text x="22" y="16" font-size="9">SQLite</text>
    </g>

    <!-- 29. Swift — text -->
    <g transform="translate(190, 260) scale(0.55) rotate(7)" opacity="0.06">
      <text x="0" y="18" font-size="16" font-weight="bold">Swift</text>
    </g>

    <!-- 30. Chrome — segmented circle -->
    <g transform="translate(340, 240) scale(0.6) rotate(-3)" opacity="0.07">
      <circle cx="12" cy="12" r="10" fill="none" stroke="#94a3b8" stroke-width="2"/>
      <circle cx="12" cy="12" r="4"/>
      <path d="M12 2A10 10 0 0 1 22 12" fill="none" stroke="#94a3b8" stroke-width="2.5"/>
      <text x="28" y="16" font-size="9">Chrome</text>
    </g>

    <!-- 31. LLVM — text -->
    <g transform="translate(490, 270) scale(0.55) rotate(5)" opacity="0.05">
      <text x="0" y="18" font-size="18" font-weight="900">LLVM</text>
    </g>

    <!-- 32. V8 — text -->
    <g transform="translate(635, 245) scale(0.5) rotate(-6)" opacity="0.06">
      <text x="0" y="20" font-size="22" font-weight="900">V8</text>
    </g>

    <!-- 33. HAProxy — text -->
    <g transform="translate(775, 275) scale(0.55) rotate(4)" opacity="0.05">
      <text x="0" y="18" font-size="18" font-weight="900">HA</text>
      <text x="28" y="16" font-size="9">Proxy</text>
    </g>

    <!-- 34. XState — state machine circles -->
    <g transform="translate(930, 250) scale(0.6) rotate(-5)" opacity="0.06">
      <circle cx="6" cy="12" r="5" fill="none" stroke="#94a3b8" stroke-width="1.5"/>
      <circle cx="18" cy="12" r="5" fill="none" stroke="#94a3b8" stroke-width="1.5"/>
      <line x1="11" y1="12" x2="13" y2="12" stroke="#94a3b8" stroke-width="1.5"/>
      <text x="28" y="16" font-size="9">XState</text>
    </g>

    <!-- 35. Bevy — text -->
    <g transform="translate(1080, 265) scale(0.5) rotate(7)" opacity="0.05">
      <text x="0" y="18" font-size="18" font-weight="bold">B</text>
      <text x="16" y="16" font-size="9">Bevy</text>
    </g>

    <!-- ═══════════════════════════════════════════════════════ -->
    <!-- UPPER BAND  y 320-440  scale 0.6-0.8  opacity 0.07-0.10 -->
    <!-- ═══════════════════════════════════════════════════════ -->

    <!-- 20. Elasticsearch — magnifying glass -->
    <g transform="translate(30, 350) scale(0.8) rotate(5)" opacity="0.09">
      <circle cx="10" cy="10" r="7" fill="none" stroke="#94a3b8" stroke-width="2"/>
      <line x1="15" y1="15" x2="22" y2="22" stroke="#94a3b8" stroke-width="2.5" stroke-linecap="round"/>
      <text x="28" y="16" font-size="9">Elasticsearch</text>
    </g>

    <!-- 21. Spark — star shape -->
    <g transform="translate(190, 385) scale(0.7) rotate(-7)" opacity="0.08">
      <path d="M12 2L14 9H21L15 14L17 21L12 17L7 21L9 14L3 9H10Z" fill="none" stroke="#94a3b8" stroke-width="1.5"/>
      <text x="26" y="16" font-size="9">Spark</text>
    </g>

    <!-- 22. CockroachDB — hexagon -->
    <g transform="translate(340, 360) scale(0.75) rotate(6)" opacity="0.09">
      <polygon points="12,2 21,7 21,17 12,22 3,17 3,7" fill="none" stroke="#94a3b8" stroke-width="1.5"/>
      <text x="28" y="16" font-size="9">CockroachDB</text>
    </g>

    <!-- 23. Envoy Proxy — triangle mesh -->
    <g transform="translate(500, 395) scale(0.7) rotate(-11)" opacity="0.08">
      <polygon points="12,2 22,20 2,20" fill="none" stroke="#94a3b8" stroke-width="1.5"/>
      <circle cx="12" cy="2" r="2"/><circle cx="22" cy="20" r="2"/><circle cx="2" cy="20" r="2"/>
      <text x="28" y="16" font-size="9">Envoy</text>
    </g>

    <!-- 24. NATS — lightning bolt -->
    <g transform="translate(650, 365) scale(0.8) rotate(8)" opacity="0.09">
      <path d="M14 2L8 12H16L10 22" fill="none" stroke="#94a3b8" stroke-width="2" stroke-linecap="round" stroke-linejoin="round"/>
      <text x="24" y="16" font-size="9">NATS</text>
    </g>

    <!-- 25. TensorFlow — real path -->
    <g transform="translate(800, 390) scale(0.7) rotate(-5)" opacity="0.08">
      <path d="M1.292 5.856L11.54 0v24l-4.095-2.378V7.603l-6.168 3.564.015-5.31zm21.43 5.311l-6.154-3.564v8.468l-4.094 2.378V0l10.248 5.856z"/>
      <text x="28" y="16" font-size="9">TensorFlow</text>
    </g>

    <!-- 26. Bitcoin — real path (partial) -->
    <g transform="translate(945, 360) scale(0.75) rotate(10)" opacity="0.09">
      <path d="M23.638 14.904c-1.602 6.43-8.113 10.34-14.542 8.736C2.67 22.05-1.244 15.525.362 9.105 1.962 2.67 8.475-1.243 14.9.358c6.43 1.605 10.342 8.115 8.738 14.548v-.002z"/>
      <text x="28" y="16" font-size="9">Bitcoin</text>
    </g>

    <!-- 27. Node.js — real path (hexagon) -->
    <g transform="translate(1080, 385) scale(0.7) rotate(-6)" opacity="0.08">
      <path d="M11.998 24c-.321 0-.641-.084-.922-.247L1.364 17.1c-.557-.316-.896-.918-.896-1.564V6.921c0-.645.339-1.247.896-1.564l8.795-5.078a1.91 1.91 0 011.886 0l8.795 5.078c.557.316.896.918.896 1.564v10.15c0 .645-.339 1.247-.896 1.564l-8.795 5.078a1.91 1.91 0 01-.943.287z"/>
      <text x="28" y="16" font-size="9">Node.js</text>
    </g>

    <!-- ═══════════════════════════════════════════════════════ -->
    <!-- MID BAND  y 440-540  scale 0.8-1.2  opacity 0.10-0.15 -->
    <!-- ═══════════════════════════════════════════════════════ -->

    <!-- 10. Kubernetes — helm wheel -->
    <g transform="translate(15, 475) scale(1.1) rotate(-6)" opacity="0.14">
      <circle cx="12" cy="12" r="10" fill="none" stroke="#94a3b8" stroke-width="1.5"/>
      <circle cx="12" cy="12" r="3" fill="none" stroke="#94a3b8" stroke-width="1"/>
      <line x1="12" y1="2" x2="12" y2="9" stroke="#94a3b8" stroke-width="1.2"/>
      <line x1="12" y1="15" x2="12" y2="22" stroke="#94a3b8" stroke-width="1.2"/>
      <line x1="2" y1="12" x2="9" y2="12" stroke="#94a3b8" stroke-width="1.2"/>
      <line x1="15" y1="12" x2="22" y2="12" stroke="#94a3b8" stroke-width="1.2"/>
      <line x1="5" y1="5" x2="9" y2="9" stroke="#94a3b8" stroke-width="1.2"/>
      <line x1="15" y1="15" x2="19" y2="19" stroke="#94a3b8" stroke-width="1.2"/>
      <line x1="19" y1="5" x2="15" y2="9" stroke="#94a3b8" stroke-width="1.2"/>
      <text x="26" y="16" font-size="9">K8s</text>
    </g>

    <!-- 11. Rust — gear cog -->
    <g transform="translate(140, 505) scale(1.0) rotate(8)" opacity="0.13">
      <circle cx="12" cy="12" r="7" fill="none" stroke="#94a3b8" stroke-width="1.5"/>
      <circle cx="12" cy="12" r="3" fill="none" stroke="#94a3b8" stroke-width="1"/>
      <line x1="12" y1="1" x2="12" y2="5" stroke="#94a3b8" stroke-width="2"/>
      <line x1="12" y1="19" x2="12" y2="23" stroke="#94a3b8" stroke-width="2"/>
      <line x1="1" y1="12" x2="5" y2="12" stroke="#94a3b8" stroke-width="2"/>
      <line x1="19" y1="12" x2="23" y2="12" stroke="#94a3b8" stroke-width="2"/>
      <line x1="4" y1="4" x2="7" y2="7" stroke="#94a3b8" stroke-width="2"/>
      <line x1="17" y1="17" x2="20" y2="20" stroke="#94a3b8" stroke-width="2"/>
      <line x1="20" y1="4" x2="17" y2="7" stroke="#94a3b8" stroke-width="2"/>
      <line x1="4" y1="20" x2="7" y2="17" stroke="#94a3b8" stroke-width="2"/>
      <text x="28" y="16" font-size="9">Rust</text>
    </g>

    <!-- 12. TypeScript — real path (square with TS) -->
    <g transform="translate(260, 470) scale(1.1) rotate(-9)" opacity="0.14">
      <path d="M1.125 0C.502 0 0 .502 0 1.125v21.75C0 23.498.502 24 1.125 24h21.75c.623 0 1.125-.502 1.125-1.125V1.125C24 .502 23.498 0 22.875 0zm17.363 9.75c.612 0 1.154.037 1.627.111a6.38 6.38 0 011.306.34v2.458a3.95 3.95 0 00-.643-.361 5.093 5.093 0 00-.717-.26 5.453 5.453 0 00-1.426-.2c-.3 0-.573.028-.819.086a2.1 2.1 0 00-.623.242c-.17.104-.3.229-.393.374a.888.888 0 00-.14.49c0 .196.053.373.156.529.104.156.252.304.443.444s.423.276.696.41c.273.135.582.274.926.416.47.197.892.407 1.266.628.374.222.695.473.963.753.268.279.472.598.614.957.142.359.214.776.214 1.253 0 .657-.125 1.21-.373 1.656a3.033 3.033 0 01-1.012 1.085 4.38 4.38 0 01-1.487.596c-.566.12-1.163.18-1.79.18a9.916 9.916 0 01-1.84-.164 5.544 5.544 0 01-1.512-.493v-2.63a5.033 5.033 0 003.237 1.2c.333 0 .624-.03.872-.09.249-.06.456-.144.623-.25.166-.108.29-.234.373-.38a1.023 1.023 0 00-.074-1.089 2.12 2.12 0 00-.537-.5 5.597 5.597 0 00-.807-.444 27.72 27.72 0 00-1.007-.436c-.918-.383-1.602-.852-2.053-1.405-.45-.553-.676-1.222-.676-2.005 0-.614.123-1.141.369-1.582.246-.441.58-.804 1.004-1.089a4.494 4.494 0 011.47-.629 7.536 7.536 0 011.77-.201zm-15.113.188h9.563v2.166H9.506v9.646H6.789v-9.646H3.375z"/>
      <text x="28" y="16" font-size="9">TypeScript</text>
    </g>

    <!-- 13. MongoDB — real path (leaf) -->
    <g transform="translate(380, 500) scale(1.0) rotate(5)" opacity="0.12">
      <path d="M17.193 9.555c-1.264-5.58-4.252-7.414-4.573-8.115-.28-.394-.53-.954-.735-1.44-.036.495-.055.685-.523 1.184-.723.566-4.438 3.682-4.74 10.02-.282 5.912 4.27 9.435 4.888 9.884l.07.05A73.49 73.49 0 0111.91 24h.481c.114-1.032.284-2.056.51-3.07.417-.296.604-.463.85-.693a11.342 11.342 0 003.639-8.464c.01-.814-.103-1.662-.197-2.218z"/>
      <text x="28" y="16" font-size="9">MongoDB</text>
    </g>

    <!-- 14. Terraform — real path -->
    <g transform="translate(495, 475) scale(0.9) rotate(10)" opacity="0.11">
      <path d="M1.44 0v7.575l6.561 3.79V3.787zm21.12 4.227l-6.561 3.791v7.574l6.56-3.787zM8.72 4.23v7.575l6.561 3.787V8.018zm0 8.405v7.575L15.28 24v-7.578z"/>
      <text x="28" y="16" font-size="9">Terraform</text>
    </g>

    <!-- 15. Vue — real path -->
    <g transform="translate(605, 510) scale(1.0) rotate(-8)" opacity="0.13">
      <path d="M24,1.61H14.06L12,5.16,9.94,1.61H0L12,22.39ZM12,14.08,5.16,2.23H9.59L12,6.41l2.41-4.18h4.43Z"/>
      <text x="28" y="16" font-size="9">Vue</text>
    </g>

    <!-- 16. Erlang — stylized e -->
    <g transform="translate(715, 480) scale(0.9) rotate(6)" opacity="0.11">
      <text x="2" y="20" font-size="22" font-style="italic">e</text>
      <text x="20" y="16" font-size="9">Erlang</text>
    </g>

    <!-- 17. Godot Engine — robot face -->
    <g transform="translate(815, 505) scale(0.8) rotate(-5)" opacity="0.10">
      <circle cx="12" cy="14" r="8" fill="none" stroke="#94a3b8" stroke-width="1.5"/>
      <circle cx="9" cy="12" r="2"/><circle cx="15" cy="12" r="2"/>
      <line x1="12" y1="2" x2="12" y2="6" stroke="#94a3b8" stroke-width="1.5"/>
      <circle cx="12" cy="2" r="2"/>
      <text x="24" y="16" font-size="9">Godot</text>
    </g>

    <!-- 18. RabbitMQ — rabbit ears -->
    <g transform="translate(925, 475) scale(1.0) rotate(11)" opacity="0.12">
      <path d="M8 22V10L4 2M16 22V10L20 2" fill="none" stroke="#94a3b8" stroke-width="2" stroke-linecap="round"/>
      <circle cx="12" cy="16" r="6" fill="none" stroke="#94a3b8" stroke-width="1.5"/>
      <text x="28" y="16" font-size="9">RabbitMQ</text>
    </g>

    <!-- 19. etcd — key shape -->
    <g transform="translate(1065, 500) scale(0.9) rotate(-4)" opacity="0.11">
      <circle cx="8" cy="8" r="6" fill="none" stroke="#94a3b8" stroke-width="1.5"/>
      <line x1="14" y1="8" x2="24" y2="8" stroke="#94a3b8" stroke-width="2"/>
      <line x1="20" y1="8" x2="20" y2="14" stroke="#94a3b8" stroke-width="1.5"/>
      <line x1="24" y1="8" x2="24" y2="12" stroke="#94a3b8" stroke-width="1.5"/>
      <text x="28" y="20" font-size="9">etcd</text>
    </g>

    <!-- ═══════════════════════════════════════════════════════ -->
    <!-- BOTTOM BAND  y 540-620  scale 1.5-2.2  opacity 0.17-0.22 -->
    <!-- ═══════════════════════════════════════════════════════ -->

    <!-- 1. React — real path (atom) -->
    <g transform="translate(25, 560) scale(2.0) rotate(-8)" opacity="0.20">
      <path d="M14.23 12a2.24 2.24 0 1 1-4.47 0 2.24 2.24 0 0 1 4.47 0zm2.65-10.69c-1.35 0-3.11.96-4.89 2.62C10.22.28 8.46-.67 7.11-.67c-.41 0-.78.09-1.1.28C4.63.4 4.32 2.87 5.03 5.97 1.98 6.92 0 8.42 0 10c0 1.59 1.99 3.1 5.04 4.03-.7 3.11-.39 5.59.99 6.38.32.19.69.28 1.1.28 1.35 0 3.11-.96 4.89-2.62 1.78 1.65 3.54 2.6 4.89 2.6.41 0 .78-.09 1.1-.27 1.38-.8 1.69-3.27.97-6.37C22.02 13.1 24 11.59 24 10c0-1.59-1.99-3.1-5.04-4.03.7-3.11.39-5.59-.99-6.38-.32-.18-.69-.28-1.09-.28z"/>
      <text x="28" y="14" font-size="8">React</text>
    </g>

    <!-- 2. Git — real path -->
    <g transform="translate(160, 550) scale(1.8) rotate(12)" opacity="0.19">
      <path d="M13.09 23.55a1.54 1.54 0 0 1-2.18 0L.45 13.09a1.54 1.54 0 0 1 0-2.18l7.19-7.19 2.73 2.73a1.85 1.85 0 0 0 .97 2.33v6.66a1.85 1.85 0 1 0 1.54 0V8.96l2.51 2.51a1.85 1.85 0 1 0 1.09-1.09l-2.63-2.63a1.85 1.85 0 0 0-2.38-2.38L8.73 2.63 10.91.45a1.54 1.54 0 0 1 2.18 0l10.46 10.46a1.54 1.54 0 0 1 0 2.18z"/>
      <text x="28" y="16" font-size="8">Git</text>
    </g>

    <!-- 3. Nginx — real path (hexagon + N) -->
    <g transform="translate(290, 585) scale(1.6) rotate(-5)" opacity="0.18">
      <path d="M12 0L1.6 6v12L12 24l10.4-6V6L12 0zm6 16.59c0 .7-.65 1.29-1.53 1.29-.63 0-1.35-.26-1.8-.81l-6-7.14v6.66c0 .72-.57 1.29-1.27 1.29H7.32c-.72 0-1.29-.6-1.29-1.29V7.41c0-.7.63-1.29 1.5-1.29.65 0 1.38.26 1.83.81l5.97 7.14V7.41c0-.72.6-1.29 1.29-1.29h.08c.72 0 1.29.6 1.29 1.29v9.18H18z"/>
      <text x="28" y="16" font-size="8">Nginx</text>
    </g>

    <!-- 4. Docker — real path (container whale) -->
    <g transform="translate(415, 555) scale(1.7) rotate(10)" opacity="0.20">
      <path d="M13.983 11.078h2.119a.186.186 0 00.186-.185V9.006a.186.186 0 00-.186-.186h-2.119a.185.185 0 00-.185.185v1.888c0 .102.083.185.185.185m-2.954-5.43h2.118a.186.186 0 00.186-.186V3.574a.186.186 0 00-.186-.185h-2.118a.185.185 0 00-.185.185v1.888c0 .102.082.185.185.185m0 2.716h2.118a.187.187 0 00.186-.186V6.29a.186.186 0 00-.186-.185h-2.118a.185.185 0 00-.185.185v1.887c0 .102.082.185.185.186m-2.93 0h2.12a.186.186 0 00.184-.186V6.29a.185.185 0 00-.185-.185H8.1a.185.185 0 00-.185.185v1.887c0 .102.083.185.185.186m-2.964 0h2.119a.186.186 0 00.185-.186V6.29a.185.185 0 00-.185-.185H5.136a.186.186 0 00-.186.185v1.887c0 .102.084.185.186.186m5.893 2.715h2.118a.186.186 0 00.186-.185V9.006a.186.186 0 00-.186-.186h-2.118a.185.185 0 00-.185.185v1.888c0 .102.082.185.185.185m-2.93 0h2.12a.185.185 0 00.184-.185V9.006a.185.185 0 00-.184-.186h-2.12a.185.185 0 00-.184.185v1.888c0 .102.083.185.185.185m-2.964 0h2.119a.185.185 0 00.185-.185V9.006a.185.185 0 00-.184-.186h-2.12a.186.186 0 00-.186.186v1.887c0 .102.084.185.186.185m-2.92 0h2.12a.185.185 0 00.184-.185V9.006a.185.185 0 00-.184-.186h-2.12a.185.185 0 00-.184.185v1.888c0 .102.082.185.185.185M23.763 9.89c-.065-.051-.672-.51-1.954-.51-.338.001-.676.03-1.01.087-.248-1.7-1.653-2.53-1.716-2.566l-.344-.199-.226.327c-.284.438-.49.922-.612 1.43-.23.97-.09 1.882.403 2.661-.595.332-1.55.413-1.744.42H.751a.751.751 0 00-.75.748 11.376 11.376 0 00.692 4.062c.545 1.428 1.355 2.48 2.41 3.124 1.18.723 3.1 1.137 5.275 1.137.983.003 1.963-.086 2.93-.266a12.248 12.248 0 003.823-1.389c.98-.567 1.86-1.288 2.61-2.136 1.252-1.418 1.998-2.997 2.553-4.4h.221c1.372 0 2.215-.549 2.68-1.009.309-.293.55-.65.707-1.046l.098-.288z"/>
      <text x="28" y="14" font-size="8">Docker</text>
    </g>

    <!-- 5. Python — real path (snake) -->
    <g transform="translate(550, 575) scale(1.5) rotate(-12)" opacity="0.17">
      <path d="M14.25.18l.9.2.73.26.59.3.45.32.34.34.25.34.16.33.1.3.04.26.02.2-.01.13V8.5l-.05.63-.13.55-.21.46-.26.38-.3.31-.33.25-.35.19-.35.14-.33.1-.3.07-.26.04-.21.02H8.77l-.69.05-.59.14-.5.22-.41.27-.33.32-.27.35-.2.36-.15.37-.1.35-.07.32-.04.27-.02.21v3.06H3.17l-.21-.03-.28-.07-.32-.12-.35-.18-.36-.26-.36-.36-.35-.46-.32-.59-.28-.73-.21-.88-.14-1.05-.05-1.23.06-1.22.16-1.04.24-.87.32-.71.36-.57.4-.44.42-.33.42-.24.4-.16.36-.1.32-.05.24-.01h.16l.06.01h8.16v-.83H6.18l-.01-2.75-.02-.37.05-.34.11-.31.17-.28.25-.26.31-.23.38-.2.44-.18.51-.15.58-.12.64-.1.71-.06.77-.04.84-.02 1.27.05z"/>
      <text x="28" y="14" font-size="8">Python</text>
    </g>

    <!-- 6. Go — real path (gopher + text marks) -->
    <g transform="translate(670, 560) scale(1.8) rotate(7)" opacity="0.19">
      <path d="M1.811 10.231c-.047 0-.058-.023-.035-.059l.246-.315c.023-.035.081-.058.128-.058h4.172c.046 0 .058.035.035.07l-.199.303c-.023.036-.082.07-.117.07zM.047 11.306c-.047 0-.059-.023-.035-.058l.245-.316c.023-.035.082-.058.129-.058h5.328c.047 0 .07.035.058.07l-.093.28c-.012.047-.058.07-.105.07zm2.828 1.075c-.047 0-.059-.035-.035-.07l.163-.292c.023-.035.07-.07.117-.07h2.337c.047 0 .07.035.07.082l-.023.28c0 .047-.047.082-.082.082zm12.129-2.36c-.656.175-1.11.292-1.764.467-.152.047-.164.058-.293-.105-.152-.187-.27-.304-.49-.456-.662-.456-1.3-.34-1.88.07-.694.49-.988 1.213-.976 2.056.012.831.57 1.517 1.39 1.634.703.105 1.3-.128 1.777-.598.105-.128.199-.269.304-.433H11.72c-.21 0-.258-.128-.187-.292.128-.316.363-.748.503-1.005.035-.07.117-.187.27-.187h3.87c-.024.328-.024.656-.07.984a5.1 5.1 0 01-.737 2.104c-.656.96-1.53 1.6-2.65 1.857-1.077.246-2.093.176-3.017-.408-.832-.525-1.347-1.277-1.56-2.22-.258-1.124-.187-2.197.339-3.216.586-1.135 1.483-1.857 2.685-2.162 1.135-.293 2.198-.187 3.169.385.468.281.82.655 1.1 1.111.082.128.058.199-.105.245z"/>
      <text x="28" y="14" font-size="8">Go</text>
    </g>

    <!-- 7. Kafka — streaming K with data lines -->
    <g transform="translate(800, 590) scale(1.6) rotate(-10)" opacity="0.18">
      <text x="0" y="20" font-size="22" font-weight="900">K</text>
      <line x1="18" y1="4" x2="24" y2="4" stroke="#94a3b8" stroke-width="2"/>
      <line x1="16" y1="10" x2="24" y2="10" stroke="#94a3b8" stroke-width="2"/>
      <line x1="18" y1="16" x2="24" y2="16" stroke="#94a3b8" stroke-width="2"/>
      <text x="28" y="14" font-size="8">Kafka</text>
    </g>

    <!-- 8. Redis — stacked diamond -->
    <g transform="translate(930, 555) scale(1.9) rotate(5)" opacity="0.21">
      <polygon points="12,2 22,12 12,22 2,12" fill="none" stroke="#94a3b8" stroke-width="2"/>
      <polygon points="12,6 18,12 12,18 6,12"/>
      <text x="28" y="16" font-size="8">Redis</text>
    </g>

    <!-- 9. PostgreSQL — elephant silhouette -->
    <g transform="translate(1070, 580) scale(1.5) rotate(-7)" opacity="0.17">
      <ellipse cx="14" cy="14" rx="9" ry="8"/>
      <path d="M5 12Q2 18 6 22" fill="none" stroke="#94a3b8" stroke-width="2.5" stroke-linecap="round"/>
      <circle cx="10" cy="11" r="2" fill="#1e293b"/>
      <text x="26" y="16" font-size="8">PostgreSQL</text>
    </g>

  </g>

  <!-- ═══════════════════════════════════════════════════════ -->
  <!-- FAVICON — top right, FULLY OPAQUE                      -->
  <!-- ═══════════════════════════════════════════════════════ -->
  <g transform="translate(1050, 30) scale(0.12)" opacity="1.0">
    <path d="M180.1728 395.2128l410.112 410.112a31.9488 31.9488 0 0 0 45.2096 0L793.6 647.3216a32 32 0 0 0 0-45.2608l-53.6064-53.6064a222.3104 222.3104 0 0 1-305.4592-305.4592l-51.2-51.2a31.9488 31.9488 0 0 0-45.2096 0l-157.952 158.208a31.9488 31.9488 0 0 0 0 45.2096z" fill="#FFC0A1"/>
    <path d="M658.4832 822.1184a47.2064 47.2064 0 0 1-33.4848-13.824L215.04 398.1824a47.36 47.36 0 0 1 0-66.9696l157.9008-158.0544a47.2576 47.2576 0 0 1 66.9184 0l51.2 51.2a15.36 15.36 0 0 1 2.2528 18.8416 206.8992 206.8992 0 0 0 284.2112 284.16 15.36 15.36 0 0 1 18.8416 2.2528L849.92 583.2704a47.36 47.36 0 0 1 0 66.9696l-158.0032 158.0544a47.36 47.36 0 0 1-33.4336 13.824z" fill="#8E5178"/>
    <path d="M669.952 588.4416a237.824 237.824 0 0 1-202.9568-361.3184 15.36 15.36 0 0 1 23.9616-2.8672l305.408 305.408a15.36 15.36 0 0 1-2.8672 24.0128 237.312 237.312 0 0 1-123.5456 34.7648z" fill="#8E5178"/>
  </g>

  <!-- ═══════════════════════════════════════════════════════ -->
  <!-- FOREGROUND — title, subtitle, stats, CTA               -->
  <!-- ═══════════════════════════════════════════════════════ -->
  <text x="80" y="140" font-family="system-ui, -apple-system, sans-serif" font-size="64" font-weight="bold" fill="#e2e8f0">Battle-Tested</text>
  <text x="80" y="215" font-family="system-ui, -apple-system, sans-serif" font-size="64" font-weight="bold" fill="#818cf8">Patterns</text>
  <text x="80" y="275" font-family="system-ui, -apple-system, sans-serif" font-size="21" fill="#94a3b8">Production-proven code patterns extracted from top open-source projects</text>
  <line x1="80" y1="300" x2="380" y2="300" stroke="#6366f1" stroke-width="3"/>
  <text x="80" y="340" font-family="monospace" font-size="16" fill="#fbbf24">34 patterns | 4 languages | 68 exercises | 100+ challenges</text>
  <rect x="80" y="365" width="200" height="36" rx="18" fill="#6366f1"/>
  <text x="180" y="388" text-anchor="middle" font-family="system-ui, sans-serif" font-size="14" font-weight="bold" fill="#fff">Star on GitHub</text>
  <text x="300" y="388" font-family="monospace" font-size="11" fill="#64748b">github.com/Totoro-jam/battle-tested-patterns</text>
</svg>
